<svg xmlns="http://www.w3.org/2000/svg" xmlns:svg="http://www.w3.org/2000/svg" xmlns:xlink="http://www.w3.org/1999/xlink" id="svg8" width="64.001" height="64.001" version="1.1" viewBox="0 0 16.933 16.933"><title id="title815">babylonjs demo</title><defs id="defs2"><linearGradient id="linearGradient975"><stop style="stop-color:gray;stop-opacity:1" id="stop971" offset="0"/><stop style="stop-color:#333;stop-opacity:1" id="stop973" offset="1"/></linearGradient><linearGradient id="linearGradient955"><stop style="stop-color:#000;stop-opacity:1" id="stop951" offset="0"/><stop style="stop-color:#999;stop-opacity:1" id="stop953" offset="1"/></linearGradient><linearGradient id="linearGradient957" x1="12.328" x2="12.328" y1="288.18" y2="280.496" gradientTransform="translate(0,-1.625e-6)" gradientUnits="userSpaceOnUse" xlink:href="#linearGradient955"/><linearGradient id="linearGradient977" x1="12.662" x2="12.662" y1="286.944" y2="281.499" gradientUnits="userSpaceOnUse" xlink:href="#linearGradient975"/><linearGradient id="linearGradient13179" x1="12.328" x2="12.328" y1="288.18" y2="280.496" gradientTransform="translate(0,-1.625e-6)" gradientUnits="userSpaceOnUse" xlink:href="#linearGradient955"/></defs><metadata id="metadata5"/><g id="layer2"><g transform="translate(-5.1375e-5,-280.066)" style="display:inline" id="bjs_button_off"><path style="fill:#ccc;stroke:none;stroke-width:.264583px;stroke-linecap:butt;stroke-linejoin:miter;stroke-opacity:1" id="path988" d="M 3.64374,280.068 0.005212,282.188 3.63962,284.275 V 284.301 L 3.66287,284.288 3.6856,284.301 V 284.275 Z"/><path id="path986" d="M 3.64374,280.068 3.63962,284.275 V 284.301 L 3.66287,284.288 3.6856,284.301 V 284.275 L 7.32,282.188 Z" style="fill:#b3b3b3;stroke:none;stroke-width:.264583px;stroke-linecap:butt;stroke-linejoin:miter;stroke-opacity:1"/><path style="fill:#1a1a1a;stroke:none;stroke-width:.264583px;stroke-linecap:butt;stroke-linejoin:miter;stroke-opacity:1" id="path979" d="M 3.64374,284.301 5.1375e-5,286.406 3.63962,288.508 V 288.534 L 3.66287,288.521 3.6856,288.534 V 288.508 L 7.32517,286.406 Z"/><path id="path990" d="M 3.64374,284.301 0.005212,282.188 5.1375e-5,286.406 3.66261,284.275 7.32517,286.406 7.32,282.188 Z" style="fill:#4d4d4d;stroke:none;stroke-width:.264583px;stroke-linecap:butt;stroke-linejoin:miter;stroke-opacity:1"/><path id="path828" d="M 0.207347,282.305 2.57542,283.685 V 284.916 L 3.68437,285.556 V 288.3 L 0.202349,286.29 Z" style="fill:#333;stroke:none;stroke-width:.264583px;stroke-linecap:butt;stroke-linejoin:miter;stroke-opacity:1"/><path style="fill:#e6e6e6;stroke:none;stroke-width:.264583px;stroke-linecap:butt;stroke-linejoin:miter;stroke-opacity:1" id="path830" d="M 1.25275,282.925 2.57542,283.685 V 284.916 L 3.68437,285.556 V 287.111 L 1.24976,285.701 Z"/><path style="fill:#333;stroke:none;stroke-width:.264583px;stroke-linecap:butt;stroke-linejoin:miter;stroke-opacity:1" id="path832" d="M 7.11786,282.305 4.74975,283.685 V 284.916 L 3.64083,285.556 V 288.3 L 7.12283,286.29 Z"/><path id="path834" d="M 6.07245,282.925 4.74975,283.685 V 284.916 L 3.64083,285.556 V 287.111 L 6.07545,285.701 Z" style="fill:#e6e6e6;stroke:none;stroke-width:.264583px;stroke-linecap:butt;stroke-linejoin:miter;stroke-opacity:1"/><path id="path838" d="M 0.207347,282.305 2.57542,283.685 3.67846,283.045 4.74975,283.685 7.11786,282.305 3.64465,280.302 Z" style="fill:#999;stroke:none;stroke-width:.264583px;stroke-linecap:butt;stroke-linejoin:miter;stroke-opacity:1"/><path style="fill:#fff;stroke:none;stroke-width:.264583px;stroke-linecap:butt;stroke-linejoin:miter;stroke-opacity:1" id="path840" d="M 1.25275,282.925 2.57542,283.685 3.67846,283.045 4.74975,283.685 6.09635,282.908 5.04811,282.306 6.0648,281.692 4.73231,280.926 Z"/><path id="path842" d="M 2.57542,283.685 V 284.916 L 3.66265,284.293 4.74975,284.916 V 283.685 L 3.67846,283.045 Z" style="fill:#333;fill-opacity:1;stroke:none;stroke-width:.264583px;stroke-linecap:butt;stroke-linejoin:miter;stroke-opacity:1"/><path id="path844" d="M 2.57542,284.916 3.66265,284.293 4.74975,284.916 3.68437,285.556 Z" style="fill:gray;fill-opacity:1;stroke:none;stroke-width:.264583px;stroke-linecap:butt;stroke-linejoin:miter;stroke-opacity:1"/></g><g id="bjs_button_bg" transform="translate(-5.1375e-5,-280.066)" style="display:inline"><path style="opacity:1;fill:#1a1a1a;fill-opacity:1;stroke:none;stroke-width:.105833;stroke-linecap:round;stroke-linejoin:round;stroke-miterlimit:4;stroke-dasharray:none;stroke-dashoffset:0;stroke-opacity:1;paint-order:stroke fill markers" id="rect878" d="M 8.46665,280.067 H 16.9333 V 288.534 H 8.46665 Z"/><path style="opacity:1;fill:url(#linearGradient13179);fill-opacity:1;stroke:none;stroke-width:.105833;stroke-linecap:round;stroke-linejoin:round;stroke-miterlimit:4;stroke-dasharray:none;stroke-dashoffset:0;stroke-opacity:1;paint-order:stroke fill markers" id="rect949" d="M 8.96778,280.568 H 16.4322 V 288.032 H 8.96778 Z"/><path style="fill:url(#linearGradient977);fill-opacity:1;stroke:none;stroke-width:.264583px;stroke-linecap:butt;stroke-linejoin:miter;stroke-opacity:1" id="path887" d="M 12.6442,281.073 9.86853,282.69 9.86453,285.908 12.6411,287.511 V 287.533 L 12.6589,287.522 12.6766,287.533 V 287.511 L 15.4532,285.908 15.4493,282.69 Z"/></g><g style="display:inline" id="bjs_button_on" transform="translate(-5.1375e-5,-271.602)"><path id="path1018" d="M 3.64374,280.068 0.005212,282.188 3.63962,284.275 V 284.301 L 3.66287,284.288 3.6856,284.301 V 284.275 Z" style="fill:#ccc;stroke:none;stroke-width:.264583px;stroke-linecap:butt;stroke-linejoin:miter;stroke-opacity:1"/><path style="fill:#b3b3b3;stroke:none;stroke-width:.264583px;stroke-linecap:butt;stroke-linejoin:miter;stroke-opacity:1" id="path1020" d="M 3.64374,280.068 3.63962,284.275 V 284.301 L 3.66287,284.288 3.6856,284.301 V 284.275 L 7.32,282.188 Z"/><path id="path1022" d="M 3.64374,284.301 5.1375e-5,286.406 3.63962,288.508 V 288.534 L 3.66287,288.521 3.6856,288.534 V 288.508 L 7.32517,286.406 Z" style="fill:#1a1a1a;stroke:none;stroke-width:.264583px;stroke-linecap:butt;stroke-linejoin:miter;stroke-opacity:1"/><path style="fill:#4d4d4d;stroke:none;stroke-width:.264583px;stroke-linecap:butt;stroke-linejoin:miter;stroke-opacity:1" id="path1024" d="M 3.64374,284.301 0.005212,282.188 5.1375e-5,286.406 3.66261,284.275 7.32517,286.406 7.32,282.188 Z"/><path style="fill:#333;stroke:none;stroke-width:.264583px;stroke-linecap:butt;stroke-linejoin:miter;stroke-opacity:1" id="path1026" d="M 0.207347,282.305 2.57542,283.685 V 284.916 L 3.68437,285.556 V 288.3 L 0.202349,286.29 Z"/><path id="path1028" d="M 1.25275,282.925 2.57542,283.685 V 284.916 L 3.68437,285.556 V 287.111 L 1.24976,285.701 Z" style="fill:#55d400;stroke:none;stroke-width:.264583px;stroke-linecap:butt;stroke-linejoin:miter;stroke-opacity:1"/><path id="path1030" d="M 7.11786,282.305 4.74975,283.685 V 284.916 L 3.64083,285.556 V 288.3 L 7.12283,286.29 Z" style="fill:#333;stroke:none;stroke-width:.264583px;stroke-linecap:butt;stroke-linejoin:miter;stroke-opacity:1"/><path style="fill:#55d400;stroke:none;stroke-width:.264583px;stroke-linecap:butt;stroke-linejoin:miter;stroke-opacity:1" id="path1032" d="M 6.07245,282.925 4.74975,283.685 V 284.916 L 3.64083,285.556 V 287.111 L 6.07545,285.701 Z"/><path style="fill:#999;stroke:none;stroke-width:.264583px;stroke-linecap:butt;stroke-linejoin:miter;stroke-opacity:1" id="path1034" d="M 0.207347,282.305 2.57542,283.685 3.67846,283.045 4.74975,283.685 7.11786,282.305 3.64465,280.302 Z"/><path id="path1036" d="M 1.25275,282.925 2.57542,283.685 3.67846,283.045 4.74975,283.685 6.09635,282.908 5.04811,282.306 6.0648,281.692 4.73231,280.926 Z" style="fill:#b3ff80;stroke:none;stroke-width:.264583px;stroke-linecap:butt;stroke-linejoin:miter;stroke-opacity:1"/><path style="fill:#333;fill-opacity:1;stroke:none;stroke-width:.264583px;stroke-linecap:butt;stroke-linejoin:miter;stroke-opacity:1" id="path1038" d="M 2.57542,283.685 V 284.916 L 3.66265,284.293 4.74975,284.916 V 283.685 L 3.67846,283.045 Z"/><path style="fill:gray;fill-opacity:1;stroke:none;stroke-width:.264583px;stroke-linecap:butt;stroke-linejoin:miter;stroke-opacity:1" id="path1040" d="M 2.57542,284.916 3.66265,284.293 4.74975,284.916 3.68437,285.556 Z"/></g></g></svg>